<svg xmlns="http://www.w3.org/2000/svg" version="1.1" xmlns:xlink="http://www.w3.org/1999/xlink" xmlns:svgjs="http://svgjs.dev/svgjs" width="2000" height="1070" viewBox="0 0 2000 1070"><g transform="matrix(1,0,0,1,-1.2121212121212466,-0.7524312397473523)"><svg viewBox="0 0 396 212" data-background-color="#ffffff" preserveAspectRatio="xMidYMid meet" height="1070" width="2000" xmlns="http://www.w3.org/2000/svg" xmlns:xlink="http://www.w3.org/1999/xlink"><g id="tight-bounds" transform="matrix(1,0,0,1,0.2400000000000091,0.14907983441722195)"><svg viewBox="0 0 395.52 211.70184033116556" height="211.70184033116556" width="395.52"><g><svg viewBox="0 0 395.52 211.70184033116556" height="211.70184033116556" width="395.52"><g transform="matrix(1,0,0,1,0,156.45849947337774)"><svg viewBox="0 0 395.52 55.2433408577878" height="55.2433408577878" width="395.52"><g id="textblocktransform"><svg viewBox="0 0 395.52 55.2433408577878" height="55.2433408577878" width="395.52" id="textblock"><g><svg viewBox="0 0 395.52 55.2433408577878" height="55.2433408577878" width="395.52"><g transform="matrix(1,0,0,1,0,0)"><svg width="395.52" viewBox="0.42 -33.33 246.08 34.370000000000005" height="55.2433408577878" data-palette-color="#000000"><path d="M15.14-8.26L10.94 1.04 0.42-20.83 4.69-20.83 8.89-11.81Q9.48-10.52 10.02-9.31 10.56-8.09 11.08-6.25L11.08-6.25Q11.63-8.06 12.2-9.31 12.78-10.56 13.3-11.81L13.3-11.81 17.5-21.81 21.67-11.81Q22.19-10.52 22.74-9.31 23.3-8.09 23.82-6.25L23.82-6.25Q24.34-8.09 24.9-9.32 25.45-10.56 26.04-11.81L26.04-11.81 30.31-20.83 34.31-20.83 23.78 1.04 19.55-8.26Q18.99-9.51 18.45-10.75 17.92-11.98 17.36-13.72L17.36-13.72Q16.84-11.98 16.28-10.75 15.73-9.51 15.14-8.26L15.14-8.26ZM41.8 0L38.05 0 38.05-33.33 41.8-33.33 41.8-17.88Q42.98-19.51 44.72-20.38 46.46-21.25 48.44-21.25L48.44-21.25Q50.66-21.25 52.55-20.16 54.44-19.06 55.62-17 56.8-14.93 56.8-11.98L56.8-11.98 56.8 0 53.05 0 53.05-11.46Q53.05-13.92 51.58-15.82 50.1-17.71 47.43-17.71L47.43-17.71Q45.24-17.71 43.52-16.13 41.8-14.55 41.8-11.56L41.8-11.56 41.8 0ZM66.8 0L63.05 0 63.05-20.83 66.8-20.83 66.8 0ZM64.93-24.58L64.93-24.58Q63.88-24.58 63.15-25.31 62.43-26.04 62.43-27.08L62.43-27.08Q62.43-28.16 63.15-28.87 63.88-29.58 64.93-29.58L64.93-29.58Q66-29.58 66.71-28.87 67.43-28.16 67.43-27.08L67.43-27.08Q67.43-26.04 66.71-25.31 66-24.58 64.93-24.58ZM79.65 0L75.9 0 75.9-17.71 71.17-17.71 71.17-20.83 76-20.83 76-27.78 79.54-27.78 79.54-20.83 84.71-20.83 84.71-17.71 79.65-17.71 79.65 0ZM99.02 0.42L99.02 0.42Q95.75 0.42 93.17-1.04 90.58-2.5 89.1-5.02 87.63-7.53 87.63-10.63L87.63-10.63Q87.63-13.58 89.05-15.99 90.48-18.4 92.89-19.83 95.3-21.25 98.22-21.25L98.22-21.25Q101.1-21.25 103.5-19.88 105.89-18.51 107.32-16.18 108.74-13.85 108.74-10.9L108.74-10.9 108.74-9.38 95.13-9.38Q94.23-9.38 93.29-9.44 92.35-9.51 91.45-9.65L91.45-9.65Q91.83-6.88 93.97-5 96.1-3.13 99.05-3.13L99.05-3.13Q101.03-3.13 102.73-4.03 104.43-4.93 105.48-6.42L105.48-6.42 106.52-2.15Q105.02-0.94 103.1-0.26 101.17 0.42 99.02 0.42ZM91.34-12.19L91.34-12.19Q93.22-12.5 95.13-12.5L95.13-12.5 102.04-12.5Q102.8-12.5 103.55-12.45 104.3-12.4 105.06-12.33L105.06-12.33Q104.57-14.76 102.63-16.34 100.68-17.92 98.22-17.92L98.22-17.92Q95.68-17.92 93.77-16.23 91.87-14.55 91.34-12.19ZM124.54 0.28L124.54 0.28Q122.38 0.28 120.51-0.54 118.63-1.35 117.21-2.74L117.21-2.74 117.21 0 113.74 0 113.74-33.33 117.49-33.33 117.49-18.37Q118.88-19.65 120.68-20.38 122.49-21.11 124.54-21.11L124.54-21.11Q127.42-21.11 129.76-19.67 132.11-18.23 133.51-15.8 134.92-13.37 134.92-10.42L134.92-10.42Q134.92-7.47 133.51-5.03 132.11-2.6 129.76-1.16 127.42 0.28 124.54 0.28ZM124.05-3.13L124.05-3.13Q126.03-3.13 127.64-4.11 129.26-5.1 130.21-6.75 131.17-8.4 131.17-10.42L131.17-10.42Q131.17-12.43 130.21-14.08 129.26-15.73 127.64-16.72 126.03-17.71 124.05-17.71L124.05-17.71Q122.07-17.71 120.46-16.72 118.84-15.73 117.89-14.08 116.93-12.43 116.93-10.42L116.93-10.42Q116.93-8.4 117.89-6.75 118.84-5.1 120.46-4.11 122.07-3.13 124.05-3.13ZM149.64 0.42L149.64 0.42Q146.62 0.42 144.12-1.04 141.62-2.5 140.14-4.97 138.67-7.43 138.67-10.42L138.67-10.42Q138.67-13.44 140.14-15.89 141.62-18.33 144.12-19.79 146.62-21.25 149.64-21.25L149.64-21.25Q152.69-21.25 155.18-19.79 157.66-18.33 159.13-15.89 160.61-13.44 160.61-10.42L160.61-10.42Q160.61-7.43 159.13-4.97 157.66-2.5 155.18-1.04 152.69 0.42 149.64 0.42ZM149.64-3.13L149.64-3.13Q151.65-3.13 153.28-4.11 154.92-5.1 155.89-6.75 156.86-8.4 156.86-10.42L156.86-10.42Q156.86-12.43 155.89-14.08 154.92-15.73 153.28-16.72 151.65-17.71 149.64-17.71L149.64-17.71Q147.62-17.71 145.99-16.72 144.36-15.73 143.39-14.08 142.42-12.43 142.42-10.42L142.42-10.42Q142.42-8.4 143.39-6.75 144.36-5.1 145.99-4.11 147.62-3.13 149.64-3.13ZM174.74 0.28L174.74 0.28Q171.89 0.28 169.53-1.16 167.17-2.6 165.76-5.03 164.36-7.47 164.36-10.42L164.36-10.42Q164.36-13.37 165.76-15.8 167.17-18.23 169.53-19.67 171.89-21.11 174.74-21.11L174.74-21.11Q176.89-21.11 178.78-20.31 180.68-19.51 182.07-18.09L182.07-18.09 182.07-20.83 185.54-20.83 185.54 0 182.07 0 182.07-2.74Q180.68-1.35 178.78-0.54 176.89 0.28 174.74 0.28ZM175.23-3.13L175.23-3.13Q177.2-3.13 178.82-4.11 180.43-5.1 181.39-6.75 182.34-8.4 182.34-10.42L182.34-10.42Q182.34-12.43 181.39-14.08 180.43-15.73 178.82-16.72 177.2-17.71 175.23-17.71L175.23-17.71Q173.25-17.71 171.63-16.72 170.02-15.73 169.06-14.08 168.11-12.43 168.11-10.42L168.11-10.42Q168.11-8.4 169.06-6.75 170.02-5.1 171.63-4.11 173.25-3.13 175.23-3.13ZM195.95 0L192.2 0 192.2-20.83 195.67-20.83 195.67-17.01Q196.79-18.85 198.63-19.95 200.47-21.04 203-21.04L203-21.04 203.94-17.29Q203.28-17.5 202.41-17.5L202.41-17.5Q199.49-17.5 197.72-15.64 195.95-13.78 195.95-10.35L195.95-10.35 195.95 0ZM216.75 0.28L216.75 0.28Q213.9 0.28 211.54-1.16 209.18-2.6 207.77-5.03 206.37-7.47 206.37-10.42L206.37-10.42Q206.37-13.37 207.77-15.8 209.18-18.23 211.54-19.67 213.9-21.11 216.75-21.11L216.75-21.11Q218.8-21.11 220.6-20.38 222.41-19.65 223.8-18.37L223.8-18.37 223.8-33.33 227.55-33.33 227.55 0 224.07 0 224.07-2.74Q222.69-1.35 220.79-0.54 218.9 0.28 216.75 0.28ZM217.23-3.13L217.23-3.13Q219.21-3.13 220.83-4.11 222.44-5.1 223.4-6.75 224.35-8.4 224.35-10.42L224.35-10.42Q224.35-12.43 223.4-14.08 222.44-15.73 220.83-16.72 219.21-17.71 217.23-17.71L217.23-17.71Q215.26-17.71 213.64-16.72 212.03-15.73 211.07-14.08 210.12-12.43 210.12-10.42L210.12-10.42Q210.12-8.4 211.07-6.75 212.03-5.1 213.64-4.11 215.26-3.13 217.23-3.13ZM239.59 0.42L239.59 0.42Q238 0.42 236.17-0.19 234.35-0.8 233.03-2.22L233.03-2.22 234.07-6.32Q235.04-4.69 236.57-3.73 238.1-2.78 239.84-2.78L239.84-2.78Q241.5-2.78 242.34-3.59 243.17-4.41 243.17-5.59L243.17-5.59Q243.17-6.94 242.28-7.57 241.4-8.19 240.7-8.44L240.7-8.44 237.89-9.51Q237.13-9.83 236.05-10.43 234.98-11.04 234.18-12.19 233.38-13.33 233.38-15.17L233.38-15.17Q233.38-16.84 234.18-18.23 234.98-19.62 236.43-20.43 237.89-21.25 239.87-21.25L239.87-21.25Q241.43-21.25 243.13-20.69 244.84-20.14 246.02-18.82L246.02-18.82 244.98-14.72Q244.14-16.25 242.72-17.15 241.29-18.06 239.77-18.06L239.77-18.06Q238.34-18.06 237.53-17.26 236.71-16.46 236.71-15.42L236.71-15.42Q236.71-14.58 237.27-13.92 237.82-13.26 238.93-12.85L238.93-12.85 241.75-11.77Q242.51-11.49 243.64-10.87 244.77-10.24 245.63-9.06 246.5-7.88 246.5-5.87L246.5-5.87Q246.5-3.06 244.54-1.32 242.58 0.42 239.59 0.42Z" opacity="1" transform="matrix(1,0,0,1,0,0)" fill="#000000" class="wordmark-text-0" data-fill-palette-color="primary" id="text-0"></path></svg></g></svg></g></svg></g></svg></g><g transform="matrix(1,0,0,1,132.57237719965423,0)"><svg viewBox="0 0 130.37524560069153 130.37524560069153" height="130.37524560069153" width="130.37524560069153"><g><svg></svg></g><g id="icon-0"><svg viewBox="0 0 130.37524560069153 130.37524560069153" height="130.37524560069153" width="130.37524560069153"><g><path d="M0 65.188c0-36.002 29.185-65.188 65.188-65.188 36.002 0 65.188 29.185 65.187 65.188 0 36.002-29.185 65.188-65.187 65.187-36.002 0-65.188-29.185-65.188-65.187zM65.188 125.393c33.251 0 60.206-26.955 60.205-60.205 0-33.251-26.955-60.206-60.205-60.206-33.251 0-60.206 26.955-60.206 60.206 0 33.251 26.955 60.206 60.206 60.205z" data-fill-palette-color="accent" fill="#383961" stroke="transparent"></path><ellipse rx="64.5357465723423" ry="64.5357465723423" cx="65.18762280034576" cy="65.18762280034576" fill="#383961" stroke="transparent" stroke-width="0" fill-opacity="1" data-fill-palette-color="accent"></ellipse></g><g transform="matrix(1,0,0,1,32.65442778617513,31.257702604881253)"><svg viewBox="0 0 65.06639002834127 67.85984039092902" height="67.85984039092902" width="65.06639002834127"><g><svg xmlns:x="http://ns.adobe.com/Extensibility/1.0/" xmlns:i="http://ns.adobe.com/AdobeIllustrator/10.0/" xmlns:graph="http://ns.adobe.com/Graphs/1.0/" xmlns="http://www.w3.org/2000/svg" xmlns:xlink="http://www.w3.org/1999/xlink" version="1.1" x="0" y="0" viewBox="12.5 12.5 75 78.21992317543396" enable-background="new 0 0 100 100" xml:space="preserve" height="67.85984039092902" width="65.06639002834127" class="icon-dxe-0" data-fill-palette-color="quaternary" id="dxe-0"><g fill="#ffffff" data-fill-palette-color="quaternary"><g fill="#ffffff" data-fill-palette-color="quaternary"><path d="M82.5 12.5H17.5A5 5 0 0 0 12.5 17.5V67.5A5 5 0 0 0 17.5 72.5H82.5A5 5 0 0 0 87.5 67.5V17.5A5 5 0 0 0 82.5 12.5" fill="#ffffff" data-fill-palette-color="quaternary"></path><path d="M20.718 82.225A5.847 5.847 0 0 0 23.331 90.068 5.85 5.85 0 0 0 31.173 87.454L37.4 75H24.331z" fill="#ffffff" data-fill-palette-color="quaternary"></path><path d="M75.67 75H62.6L68.827 87.453A5.845 5.845 0 1 0 79.282 82.224z" fill="#ffffff" data-fill-palette-color="quaternary"></path></g></g></svg><g></g></g></svg></g></svg></g></svg></g><g></g></svg></g><defs></defs></svg><rect width="395.52" height="211.70184033116556" fill="none" stroke="none" visibility="hidden"></rect></g></svg></g></svg>