<svg xmlns="http://www.w3.org/2000/svg" version="1.1" xmlns:xlink="http://www.w3.org/1999/xlink" xmlns:svgjs="http://svgjs.dev/svgjs" width="128" height="128" viewBox="0 0 128 128"><g transform="matrix(0.8046875,0,0,0.8046875,12.313567887461602,10.539130525267105)"><svg viewBox="0 0 92 96" data-background-color="#ffffff" preserveAspectRatio="xMidYMid meet" height="133" width="128" xmlns="http://www.w3.org/2000/svg" xmlns:xlink="http://www.w3.org/1999/xlink"><g id="tight-bounds" transform="matrix(1,0,0,1,0.22473770564226925,0.016251878333392256)"><svg viewBox="0 0 91.55052458871545 95.481" height="95.481" width="91.55052458871545"><g><svg viewBox="0 0 91.55052458871545 95.481" height="95.481" width="91.55052458871545"><g><svg viewBox="0 0 91.55052458871545 95.481" height="95.481" width="91.55052458871545"><g id="textblocktransform"><svg viewBox="0 0 91.55052458871545 95.481" height="95.481" width="91.55052458871545" id="textblock"><g><svg viewBox="0 0 91.55052458871545 95.481" height="95.481" width="91.55052458871545"><g><svg viewBox="0 0 91.55052458871545 95.481" height="95.481" width="91.55052458871545"><g><svg xmlns:x="http://ns.adobe.com/Extensibility/1.0/" xmlns:i="http://ns.adobe.com/AdobeIllustrator/10.0/" xmlns:graph="http://ns.adobe.com/Graphs/1.0/" xmlns="http://www.w3.org/2000/svg" xmlns:xlink="http://www.w3.org/1999/xlink" version="1.1" x="0" y="0" viewBox="12.5 12.5 75 78.21992317543396" enable-background="new 0 0 100 100" xml:space="preserve" height="95.481" width="91.55052458871545" class="icon-icon-0" data-fill-palette-color="accent" id="icon-0"><g fill="#172554" data-fill-palette-color="accent"><g fill="#172554" data-fill-palette-color="accent"><path d="M82.5 12.5H17.5A5 5 0 0 0 12.5 17.5V67.5A5 5 0 0 0 17.5 72.5H82.5A5 5 0 0 0 87.5 67.5V17.5A5 5 0 0 0 82.5 12.5" fill="#172554" data-fill-palette-color="accent"></path><path d="M20.718 82.225A5.847 5.847 0 0 0 23.331 90.068 5.85 5.85 0 0 0 31.173 87.454L37.4 75H24.331z" fill="#172554" data-fill-palette-color="accent"></path><path d="M75.67 75H62.6L68.827 87.453A5.845 5.845 0 1 0 79.282 82.224z" fill="#172554" data-fill-palette-color="accent"></path></g></g></svg><g></g></g></svg></g></svg></g></svg></g></svg></g><g></g></svg></g><defs></defs></svg><rect width="91.55052458871545" height="95.481" fill="none" stroke="none" visibility="hidden"></rect></g></svg></g></svg>